<svg width="48" height="48" viewBox="0 0 48 48" fill="none" xmlns="http://www.w3.org/2000/svg">
<path d="M23.9999 0L25.0699 1.305L23.9999 2.68L22.9279 1.306L23.9999 0ZM29.8839 14.419C30.4509 14.244 31.4399 14.229 32.1279 14.833C32.1279 14.188 31.5709 13.616 31.3769 13.543C31.1219 13.589 30.2559 13.963 29.8839 14.419ZM15.8999 14.833C16.5899 14.23 17.5779 14.243 18.1449 14.419C17.7749 13.962 16.9069 13.589 16.6529 13.543C16.4589 13.616 15.9009 14.188 15.9009 14.833H15.8999ZM31.1869 5.252L30.4249 4.325L29.6639 5.252L30.4239 6.159L31.1869 5.252ZM17.5739 4.325L18.3359 5.252L17.5739 6.159L16.8129 5.252L17.5739 4.325Z" fill="#3D4B66"/>
<path d="M16.1538 9.80005H18.9948C21.3848 9.80005 22.4588 8.33405 22.7848 7.06305H25.2148C25.5398 8.33305 26.6148 9.79905 29.0048 9.79905H31.8458C31.8458 9.79905 32.3428 9.12505 32.4678 8.79205C32.9168 7.59105 32.3428 7.03105 31.5058 7.03105L30.4248 8.01105L29.3428 7.03105C28.5058 7.03105 27.9328 7.59105 28.3818 8.79105C28.4388 8.94505 28.5758 9.17105 28.7058 9.36905C27.6978 9.23105 26.4108 8.54105 26.1278 7.06305C26.1278 7.06305 26.8728 5.88005 27.0598 5.40205C27.7318 3.68005 26.8738 2.97705 25.6198 2.97705L23.9998 4.88005L22.3798 2.97705C21.1248 2.97705 20.2668 3.68005 20.9398 5.40205C21.1258 5.88005 21.8708 7.06305 21.8708 7.06305C21.5878 8.54105 20.3008 9.23105 19.2928 9.36905C19.4228 9.17105 19.5598 8.94505 19.6168 8.79205C20.0648 7.59105 19.4928 7.03105 18.6558 7.03105L17.5738 8.01105L16.4918 7.03105C15.6548 7.03105 15.0828 7.59105 15.5308 8.79105C15.6558 9.12505 16.1538 9.79905 16.1538 9.79905V9.80005ZM35.2878 6.78705C35.2168 6.55905 37.5398 6.55305 37.5398 8.00605C37.5398 8.48805 37.1998 8.84505 36.8548 9.20505C36.5048 9.57205 36.1508 9.94205 36.1508 10.4521C36.1508 10.922 36.6568 11.2681 36.8128 11.2681C36.4548 9.64505 37.9348 10.4941 38.3338 10.7981C37.8458 9.45605 38.3338 8.94505 38.7408 8.51805C38.9958 8.24905 39.2198 8.01405 39.1518 7.62805C39.0768 7.20105 38.4658 7.11405 37.8738 7.03005C37.4988 6.97705 37.1318 6.92405 36.9138 6.78705C36.6468 6.62005 36.3678 6.32305 36.0868 6.02505C35.3138 5.20405 34.5268 4.36805 33.9568 6.15905C35.4068 7.50505 34.5628 9.48605 32.7218 9.48605C32.7218 9.48605 32.7118 9.77605 32.7278 9.79905C34.9248 9.69205 35.6898 8.07905 35.2878 6.78705ZM11.1868 11.2681C11.5438 9.64505 10.0638 10.4941 9.6638 10.7981C10.1528 9.45605 9.6648 8.94505 9.2578 8.51805C9.0028 8.24905 8.7788 8.01405 8.8468 7.62805C8.9218 7.20105 9.5328 7.11405 10.1248 7.03005C10.4998 6.97705 10.8668 6.92405 11.0848 6.78705C11.3518 6.62005 11.6308 6.32305 11.9118 6.02505C12.6848 5.20405 13.4718 4.36805 14.0418 6.15905C12.5918 7.50505 13.4368 9.48605 15.2768 9.48605C15.2768 9.48605 15.2868 9.77605 15.2708 9.79905C13.0748 9.69205 12.3098 8.07905 12.7108 6.78705C12.7808 6.55905 10.4588 6.55305 10.4588 8.00605C10.4588 8.48805 10.7988 8.84505 11.1438 9.20505C11.4938 9.57205 11.8478 9.94205 11.8478 10.4521C11.8478 10.922 11.3418 11.2681 11.1868 11.2681ZM29.5948 10.8901C31.8878 10.8831 34.0508 10.8761 34.3248 12.3371C34.4208 12.8491 34.1748 13.6291 33.9078 13.8531C33.8608 13.6911 33.6128 13.1601 32.8278 13.0411C29.8778 12.5961 27.7398 16.2011 27.8498 19.3251L27.1898 20.0981C26.3318 18.8991 25.2058 18.2211 23.9998 18.2211C22.7938 18.2211 21.6688 18.9001 20.8098 20.0981L20.1498 19.3251C20.2598 16.1051 18.2098 12.5911 15.2248 13.0411C14.4408 13.1611 14.1918 13.6911 14.1448 13.8531C13.8778 13.6291 13.6318 12.8491 13.7268 12.3371C14.0008 10.8761 16.1638 10.8831 18.4568 10.8901C19.9588 10.8951 21.5158 10.9001 22.6368 10.4941C22.6908 11.1991 21.7638 12.3291 20.8778 12.7471C22.3548 14.0271 23.4498 15.3221 23.9998 16.564C24.5498 15.3221 26.0478 13.7241 27.1738 12.7471C26.2878 12.3291 25.3618 11.1991 25.4158 10.4941C26.5358 10.9001 28.0938 10.8951 29.5948 10.8901Z" fill="#3D4B66"/>
<path d="M10.6468 20.395C10.527 20.1603 10.4266 19.9161 10.3468 19.665C9.03479 19.913 6.58679 20.307 5.21679 20.093C3.29479 19.793 2.16979 18.443 2.38679 16.762C2.39179 16.719 2.44379 16.694 2.48679 16.715C3.03279 16.975 6.08179 18.321 10.0598 17.985C10.0489 17.7485 10.0469 17.5116 10.0538 17.275C7.43979 16.956 5.31279 16.509 3.92579 15.782C2.24179 14.897 1.50579 12.787 2.35379 11.215C2.37579 11.175 2.43779 11.168 2.46979 11.203C2.93079 11.703 5.75679 14.6 10.2178 15.593C10.2548 15.359 10.2988 15.117 10.3498 14.867C8.17779 13.693 6.08479 12.355 5.07279 11.128C3.49679 9.21796 3.64279 6.78096 5.13979 5.53796C5.17279 5.51096 5.22679 5.51796 5.24879 5.55296C5.72679 6.29596 10.1658 13.062 15.0388 15.983L15.2218 16.089C15.3598 16.169 15.3758 16.34 15.2568 16.441C14.6948 16.921 14.3448 17.591 14.3448 18.334C14.3448 19.624 15.3998 20.698 16.7948 20.931C17.4438 21.05 19.5998 20.981 19.5998 20.981L19.7628 21.23C19.0628 21.745 18.2328 22.52 17.9498 23.374C17.3998 25.031 17.9498 26.779 17.9498 26.779C17.6818 28.66 15.8508 29.757 14.2318 28.795C14.1668 28.756 14.1648 28.663 14.2248 28.616C15.9368 27.29 16.6028 25.97 16.7898 24.941C16.6498 24.579 16.4048 24.295 16.0898 24.055C15.7968 25.205 15.3768 26.14 14.8638 26.699C13.7998 27.854 12.0628 27.839 11.3098 27.039C11.2838 27.012 11.2918 26.969 11.3268 26.949C11.7398 26.726 13.9728 25.434 14.6798 23.309C14.4577 23.2149 14.235 23.1222 14.0118 23.031C13.6088 23.743 12.9618 24.474 11.3498 25.399C9.42479 26.503 8.17979 25.835 7.52779 24.77C7.50479 24.733 7.53279 24.686 7.58079 24.682C8.48179 24.614 11.0708 23.93 12.5168 22.308C12.2702 22.1624 12.0346 21.9989 11.8118 21.819C10.5408 22.599 8.99579 23.233 7.83779 23.381C6.22679 23.587 4.40179 23.103 4.35679 21.336C4.35679 21.301 4.38979 21.271 4.42979 21.273C4.94679 21.303 8.05979 21.431 10.6468 20.395ZM37.3528 20.395C37.4678 20.171 37.5688 19.929 37.6528 19.665C38.9648 19.913 41.4128 20.307 42.7828 20.093C44.7048 19.793 45.8298 18.443 45.6128 16.762C45.6078 16.719 45.5558 16.694 45.5128 16.715C44.9668 16.975 41.9178 18.321 37.9398 17.985C37.9498 17.759 37.9528 17.523 37.9458 17.275C40.5598 16.956 42.6868 16.509 44.0738 15.782C45.7578 14.897 46.4938 12.787 45.6458 11.215C45.6238 11.175 45.5618 11.168 45.5308 11.203C45.0688 11.703 42.2428 14.6 37.7808 15.593C37.7448 15.359 37.7008 15.117 37.6508 14.867C39.8218 13.693 41.9148 12.355 42.9268 11.128C44.5028 9.21796 44.3568 6.78096 42.8598 5.53796C42.8268 5.51096 42.7728 5.51796 42.7508 5.55296C42.2728 6.29596 37.8338 13.062 32.9608 15.983C32.9006 16.0191 32.8399 16.0544 32.7788 16.089C32.6388 16.169 32.6238 16.34 32.7428 16.441C33.3048 16.921 33.6548 17.591 33.6548 18.334C33.6548 19.624 32.5998 20.698 31.2048 20.931C30.5558 21.05 28.3998 20.981 28.3998 20.981L28.2368 21.23C28.9368 21.745 29.7668 22.52 30.0498 23.374C30.5998 25.031 30.0498 26.779 30.0498 26.779C30.3178 28.66 32.1488 29.757 33.7678 28.795C33.8328 28.756 33.8358 28.663 33.7748 28.616C32.0628 27.29 31.3968 25.97 31.2098 24.941C31.3498 24.579 31.5948 24.295 31.9098 24.055C32.2028 25.205 32.6228 26.14 33.1358 26.699C34.1998 27.854 35.9368 27.839 36.6898 27.039C36.7158 27.012 36.7078 26.969 36.6728 26.949C36.2598 26.726 34.0268 25.434 33.3198 23.309C33.5419 23.2149 33.7645 23.1222 33.9878 23.031C34.3908 23.743 35.0378 24.474 36.6498 25.399C38.5748 26.503 39.8198 25.835 40.4718 24.77C40.4948 24.733 40.4668 24.686 40.4188 24.682C39.5178 24.614 36.9288 23.93 35.4828 22.308C35.7268 22.163 35.9628 22.002 36.1878 21.819C37.4588 22.599 39.0038 23.233 40.1618 23.381C41.7728 23.587 43.5978 23.103 43.6428 21.336C43.6428 21.301 43.6098 21.271 43.5698 21.273C43.0528 21.303 39.9398 21.431 37.3528 20.395Z" fill="#3D4B66"/>
<path fill-rule="evenodd" clip-rule="evenodd" d="M18.5321 28.8529C18.334 29.1181 18.2307 29.4421 18.2387 29.7731C18.2467 30.104 18.3655 30.4226 18.5761 30.6779L18.2101 31.3409L8.55312 27.2259C8.48601 27.1977 8.41042 27.1971 8.34293 27.2245C8.27544 27.2519 8.22156 27.3049 8.19312 27.3719L7.97712 27.8809L7.72412 27.7729C7.65735 27.7476 7.58333 27.749 7.51763 27.7771C7.45193 27.8051 7.39967 27.8576 7.37182 27.9233C7.34398 27.9891 7.34273 28.0632 7.36833 28.1298C7.39394 28.1965 7.4444 28.2507 7.50912 28.2809L7.76212 28.3889L7.54712 28.8969C7.48812 29.0369 7.55312 29.1999 7.69312 29.2589L9.46512 30.0139C9.05012 30.9969 8.16112 31.7779 5.61912 31.3139C5.49812 31.2909 5.39412 31.4039 5.43412 31.5209C6.53212 34.6879 11.1911 36.6729 14.2241 35.2659C14.3361 35.2139 14.3441 35.0599 14.2441 34.9879C12.1441 33.4759 12.0871 32.2919 12.5031 31.3079L17.1401 33.2849L15.2001 36.8089L16.8501 36.2569L18.5581 33.8889L21.1911 35.0109L12.4751 38.7249C12.4438 38.7381 12.4094 38.7422 12.3759 38.7369C12.3423 38.7316 12.3109 38.7171 12.2851 38.6949L11.9031 38.3689C12.1047 38.2824 12.2638 38.1196 12.3457 37.9161C12.4276 37.7126 12.4256 37.485 12.3401 37.2829C12.2982 37.1828 12.2369 37.092 12.1597 37.0157C12.0826 36.9393 11.9911 36.879 11.8905 36.8381C11.79 36.7972 11.6824 36.7766 11.5738 36.7774C11.4653 36.7783 11.358 36.8005 11.2581 36.8429C10.3041 37.2509 10.9621 38.8069 11.2581 39.5049L11.2721 39.5369L8.12312 40.8789C7.992 40.9348 7.8474 40.9512 7.70712 40.9259L7.47512 40.8839C7.44414 40.8781 7.41395 40.8687 7.38512 40.8559C7.17972 40.7658 6.95803 40.7188 6.73374 40.7178C6.50945 40.7167 6.28733 40.7617 6.08112 40.8499C5.67781 41.0228 5.35942 41.3484 5.19561 41.7555C5.03181 42.1625 5.03595 42.6179 5.20712 43.0219C5.33548 43.3264 5.55239 43.5852 5.8297 43.7649C6.10701 43.9445 6.43191 44.0366 6.76223 44.0293C7.09255 44.022 7.41304 43.9155 7.68211 43.7238C7.95117 43.532 8.15639 43.2638 8.27112 42.9539C8.28207 42.9237 8.2965 42.8949 8.31412 42.8679L8.44512 42.6719C8.5244 42.5531 8.63666 42.4599 8.76812 42.4039L11.9161 41.0619L11.9301 41.0939C12.2251 41.7939 12.8831 43.3499 13.8371 42.9429C14.0387 42.8564 14.1978 42.6936 14.2797 42.4901C14.3616 42.2866 14.3596 42.059 14.2741 41.8569C14.2321 41.7571 14.1707 41.6664 14.0936 41.5903C14.0165 41.5141 13.9251 41.454 13.8247 41.4132C13.7243 41.3724 13.6168 41.3518 13.5084 41.3526C13.4001 41.3535 13.2929 41.3757 13.1931 41.4179L13.2231 40.9159C13.2253 40.8818 13.2369 40.8489 13.2566 40.821C13.2764 40.7931 13.3036 40.7713 13.3351 40.7579L24.0051 36.2099L38.5751 42.4199C38.7151 42.4789 38.8771 42.4129 38.9361 42.2729L39.1511 41.7649L39.4041 41.8729C39.4709 41.8983 39.5449 41.8969 39.6106 41.8688C39.6763 41.8408 39.7286 41.7883 39.7564 41.7226C39.7843 41.6568 39.7855 41.5827 39.7599 41.5161C39.7343 41.4494 39.6838 41.3952 39.6191 41.3649L39.3661 41.2559L39.5811 40.7479C39.5953 40.7146 39.6028 40.6788 39.6031 40.6425C39.6035 40.6063 39.5966 40.5703 39.5831 40.5367C39.5695 40.5031 39.5495 40.4725 39.5241 40.4466C39.4987 40.4207 39.4685 40.4001 39.4351 40.3859L26.8211 35.0109L29.4451 33.8929L31.1501 36.2569L32.8001 36.8089L30.8621 33.2889L37.7471 30.3549C38.2718 30.1315 38.7371 29.7887 39.1061 29.3539L39.9021 28.4159C39.9243 28.3899 39.9388 28.3582 39.9439 28.3244C39.9491 28.2906 39.9448 28.256 39.9314 28.2245C39.918 28.1931 39.896 28.166 39.8681 28.1462C39.8401 28.1265 39.8073 28.115 39.7731 28.1129L38.5481 28.0359C37.9801 28.0007 37.4116 28.0986 36.8881 28.3219L29.7921 31.3449L29.4251 30.6769C29.6355 30.4217 29.7542 30.1032 29.7622 29.7725C29.7701 29.4419 29.667 29.1181 29.4691 28.8529L28.9501 28.1589L28.1251 29.3769V30.0919H27.3001C26.7501 30.9199 25.6501 32.2999 24.0001 32.2999C22.3831 32.2999 21.2501 30.9199 20.7001 30.0919H19.8751V29.3769C19.8751 29.3769 19.3171 28.5559 19.0501 28.1589L18.5321 28.8529ZM28.1211 32.0579L27.7591 31.5559L24.2821 33.0099C24.1928 33.0474 24.0969 33.0666 24.0001 33.0666C23.9033 33.0666 23.8074 33.0474 23.7181 33.0099L20.2411 31.5559L19.8821 32.0539L24.0061 33.8109L28.1211 32.0579Z" fill="#3D4B66"/>
<path d="M19.5251 41.317C19.9691 39.416 21.525 37.817 23.13 37.058C24.0251 36.727 24.0261 36.727 24.9211 37.058C26.5261 37.816 28.081 39.416 28.526 41.318C28.729 42.188 27.758 42.973 26.9561 43.188C26.9161 43.198 26.876 43.17 26.8731 43.131C26.7211 40.726 25.6581 38.685 24.7071 37.756C24.6806 37.9375 24.6606 38.12 24.6471 38.303C24.6471 38.303 25.6221 41.017 25.6221 42.997C25.6221 43.918 24.2531 44.561 24.0001 44.651C23.7981 44.561 22.4281 43.918 22.4281 42.997C22.4281 41.017 23.4021 38.303 23.4021 38.303C23.3892 38.12 23.3699 37.9376 23.3441 37.756C22.3921 38.685 21.3291 40.727 21.1771 43.132C21.1751 43.171 21.1351 43.199 21.0951 43.188C20.2931 42.973 19.3211 42.188 19.5251 41.318V41.317ZM24.0071 19.325L24.6311 20.084L24.0071 20.826L23.3841 20.084L24.0071 19.324V19.325Z" fill="#3D4B66"/>
<path d="M22.845 22.9C22.845 22.9 22.438 22.35 22.335 22.076C21.969 21.093 22.437 20.636 23.122 20.636L24.007 21.436L24.892 20.636C25.577 20.636 26.045 21.093 25.679 22.076C25.577 22.349 25.169 22.901 25.169 22.901H22.845V22.9ZM22.882 23.39H25.132V27.908H25.447V28.586H25.807V29.263H22.207V28.586H22.567V27.908H22.882V23.391V23.39Z" fill="#3D4B66"/>
</svg>
